<svg xmlns="http://www.w3.org/2000/svg" viewBox="0 0 100 100">
  <!-- Main Circle -->
  <circle cx="50" cy="50" r="48" fill="none" stroke="#e5e7eb" stroke-width="1"/>
  
  <!-- PB Monogram -->
  <g transform="translate(28, 25)">
    <!-- P part -->
    <path d="M0 0
             L0 50
             M0 0
             C0 0 25 0 25 15
             C25 30 0 30 0 30"
          fill="none"
          stroke="#3b82f6"
          stroke-width="4"
          stroke-linecap="round"
          stroke-linejoin="round"/>
    
    <!-- B part -->
    <path d="M20 15
             L20 50
             M20 15
             C20 15 45 15 45 27.5
             C45 40 20 40 20 40
             M20 40
             C20 40 43 40 43 45
             C43 50 20 50 20 50"
          fill="none"
          stroke="#2563eb"
          stroke-width="4"
          stroke-linecap="round"
          stroke-linejoin="round"/>
  </g>
  
  <!-- Subtle Accent Line -->
  <path d="M25 75 C35 85, 65 85, 75 75" 
        fill="none" 
        stroke="#93c5fd" 
        stroke-width="2"
        stroke-linecap="round"/>
</svg>