<svg xmlns="http://www.w3.org/2000/svg" viewBox="0 0 100 100">
    <!-- Background Shapes -->
    <rect x="20" y="20" width="60" height="60" rx="8" 
          transform="rotate(-10, 50, 50)"
          fill="#bfdbfe"/>
    <rect x="20" y="20" width="60" height="60" rx="8" 
          transform="rotate(10, 50, 50)"
          fill="#93c5fd"/>
          
    <!-- Text Container -->
    <rect x="25" y="25" width="50" height="50" rx="6" 
          fill="#ffffff"/>
    
    <!-- Curvy PB Monogram -->
    <path d="M30 35
             C30 35 35 65 35 65
             M30 35
             C45 35 60 35 60 45
             C60 55 35 55 35 55"
          fill="none"
          stroke="#60a5fa"
          stroke-width="4"
          stroke-linecap="round"
          stroke-linejoin="round"/>
    
    <path d="M45 45
             C45 45 50 65 50 65
             M45 45
             C65 45 70 50 70 55
             C70 60 50 65 50 65"
          fill="none"
          stroke="#3b82f6"
          stroke-width="4"
          stroke-linecap="round"
          stroke-linejoin="round"/>
    
    <!-- Decorative Elements -->
    <circle cx="35" cy="35" r="2" fill="#60a5fa"/>
    <circle cx="60" cy="52.5" r="2" fill="#3b82f6"/>
</svg>